<svg viewBox="0 0 20 20" fill="#e8e6e3" xmlns="http://www.w3.org/2000/svg">
	<path d="M10.8047 0.382801C10.2943 -0.127599 9.47139 -0.127599 8.96097 0.382801L0.304718 9.039C-0.101582 9.4453 -0.101582 10.1015 0.304718 10.5078L8.96097 19.164C9.47139 19.6744 10.2943 19.6744 10.8047 19.164C11.3151 18.6536 11.3151 17.8307 10.8047 17.3203L3.26305 9.7682L10.8151 2.2161C11.3151 1.7161 11.3151 0.882801 10.8047 0.382801Z" />
	<path d="M18.8047 0.382801C18.2943 -0.127599 17.4714 -0.127599 16.961 0.382801L8.30472 9.039C7.89842 9.4453 7.89842 10.1015 8.30472 10.5078L16.961 19.164C17.4714 19.6744 18.2943 19.6744 18.8047 19.164C19.3151 18.6536 19.3151 17.8307 18.8047 17.3203L11.263 9.7682L18.8151 2.2161C19.3151 1.7161 19.3151 0.882801 18.8047 0.382801Z" />
</svg>
