<svg viewBox="0 0 20 20" fill="#e8e6e3" xmlns="http://www.w3.org/2000/svg">
	<path d="M9.1953 19.6172C9.7057 20.1276 10.5286 20.1276 11.039 19.6172L19.6953 10.961C20.1016 10.5547 20.1016 9.8985 19.6953 9.4922L11.039 0.836002C10.5286 0.325602 9.7057 0.325602 9.1953 0.836002C8.6849 1.3464 8.6849 2.1693 9.1953 2.6797L16.7369 10.2318L9.1849 17.7839C8.6849 18.2839 8.6849 19.1172 9.1953 19.6172Z" />
	<path d="M1.1953 19.6172C1.7057 20.1276 2.5286 20.1276 3.039 19.6172L11.6953 10.961C12.1016 10.5547 12.1016 9.8985 11.6953 9.4922L3.039 0.836002C2.5286 0.325602 1.7057 0.325602 1.1953 0.836002C0.6849 1.3464 0.6849 2.1693 1.1953 2.6797L8.737 10.2318L1.1849 17.7839C0.684901 18.2839 0.6849 19.1172 1.1953 19.6172Z" />
</svg>
