<svg viewBox="0 0 32 32" fill="#e8e6e3"
  xmlns="http://www.w3.org/2000/svg">
  <g clip-path="url(#clip0_202_2)">
    <path fill-rule="evenodd" clip-rule="evenodd" d="M31.7 15.219L16.756 0.275C16.554 0.0729999 16.289 -0.0260001 16.025 -0.0240001C16.017 -0.0240001 16.011 -0.0280001 16.003 -0.0280001H1.003C0.451 -0.0280001 0.00300001 0.42 0.00300001 0.972C0.00300001 0.98 0.00700001 0.986 0.00700001 0.994C0.00600001 1.258 0.105 1.523 0.306 1.725L14.552 15.971L0.276 30.247C-0.125 30.648 -0.125 31.298 0.276 31.699C0.514 31.937 0.837 32.016 1.146 31.972H15.857C16.166 32.016 16.489 31.937 16.727 31.699L31.699 16.727C31.907 16.519 32.002 16.245 31.994 15.972C32.002 15.701 31.907 15.427 31.7 15.219ZM15.551 29.972H3.455L16.699 16.728C16.907 16.52 17.002 16.246 16.994 15.973C17.002 15.701 16.907 15.427 16.699 15.219L3.453 1.972H15.554L29.553 15.971L15.551 29.972Z" />
  </g>
</svg>
