<svg viewBox="0 0 32 32" fill="#e8e6e3"
  xmlns="http://www.w3.org/2000/svg">
  <path fill-rule="evenodd" clip-rule="evenodd" d="M0.299999 16.781L15.244 31.725C15.446 31.927 15.711 32.026 15.975 32.024C15.983 32.024 15.989 32.028 15.997 32.028H30.997C31.549 32.028 31.997 31.58 31.997 31.028C31.997 31.02 31.993 31.014 31.993 31.006C31.994 30.742 31.895 30.477 31.694 30.275L17.448 16.029L31.724 1.753C32.125 1.352 32.125 0.702001 31.724 0.301001C31.486 0.0630006 31.163 -0.0160001 30.854 0.0279999H16.143C15.834 -0.0160001 15.511 0.0630006 15.273 0.301001L0.301001 15.273C0.0930008 15.481 -0.00199924 15.755 0.00600076 16.028C-0.00199924 16.299 0.0929995 16.573 0.299999 16.781ZM16.449 2.028L28.545 2.028L15.301 15.272C15.093 15.48 14.998 15.754 15.006 16.027C14.998 16.299 15.093 16.573 15.301 16.781L28.547 30.028H16.446L2.447 16.029L16.449 2.028Z"/>
</svg>
