<svg viewBox="0 0 24 24" fill="none" stroke="#e8e6e3" xmlns="http://www.w3.org/2000/svg">
	<path d="M12 22C17.5228 22 22 17.5228 22 12C22 6.47715 17.5228 2 12 2C6.47715 2 2 6.47715 2 12C2 17.5228 6.47715 22 12 22Z" stroke-width="1.5" stroke-linecap="round" stroke-linejoin="round" />
	<path d="M7.625 12C7.625 12.4832 7.23325 12.875 6.75 12.875C6.26675 12.875 5.875 12.4832 5.875 12C5.875 11.5168 6.26675 11.125 6.75 11.125C7.23325 11.125 7.625 11.5168 7.625 12Z" stroke-width="1.75" />
	<path d="M12.875 12C12.875 12.4832 12.4832 12.875 12 12.875C11.5168 12.875 11.125 12.4832 11.125 12C11.125 11.5168 11.5168 11.125 12 11.125C12.4832 11.125 12.875 11.5168 12.875 12Z" stroke-width="1.75" />
	<path d="M18.125 12C18.125 12.4832 17.7332 12.875 17.25 12.875C16.7668 12.875 16.375 12.4832 16.375 12C16.375 11.5168 16.7668 11.125 17.25 11.125C17.7332 11.125 18.125 11.5168 18.125 12Z" stroke-width="1.75" />
</svg>
