<svg width="24" height="24" viewBox="0 0 24 24" fill="none" xmlns="http://www.w3.org/2000/svg">
<path fill-rule="evenodd" clip-rule="evenodd" d="M11.7402 6.39859V6.427L12.6943 5.45708L12.1609 8.02863L11.7864 9.83332H18.1025C18.7224 9.83332 19.1501 10.4682 18.9099 11.049C18.9086 11.052 18.9073 11.055 18.906 11.0581L16.3311 17.0688C16.312 17.1082 16.2764 17.125 16.25 17.125H9.125C9.10677 17.125 9.08644 17.1183 9.06741 17.0992C9.04838 17.0802 9.04166 17.0599 9.04166 17.0417V9.13291C9.04166 9.12094 9.04409 9.10891 9.04854 9.0981C9.05304 9.08717 9.05836 9.08044 9.06149 9.07731L11.7402 6.39859ZM14.2439 7.83332H18.1025C20.1497 7.83332 21.5328 9.9125 20.7643 11.7982L20.7628 11.8028L20.7516 11.8288C20.7506 11.8313 20.7495 11.8339 20.7484 11.8365L20.7117 11.923L20.7105 11.9249L18.1838 17.823L18.182 17.8285L18.1632 17.8711C17.8307 18.6261 17.0838 19.125 16.25 19.125H9.125C7.97808 19.125 7.04166 18.1887 7.04166 17.0417V9.13291C7.04166 8.58232 7.25946 8.05092 7.64727 7.6631L12.0301 3.28033C12.0302 3.28015 12.0306 3.27973 12.0308 3.27956C12.0372 3.27303 12.0437 3.26655 12.0502 3.26014L13.7402 1.57016V2.86104C13.982 2.93913 14.21 3.07322 14.404 3.26289L14.4091 3.26787L14.4142 3.27292C14.8157 3.67676 14.982 4.24681 14.873 4.8005C14.873 4.80027 14.873 4.80018 14.873 4.8005L13.8917 4.60791L14.8727 4.80199C14.8728 4.8016 14.8729 4.80088 14.873 4.8005C14.8728 4.80146 14.8723 4.80372 14.872 4.80554L14.8706 4.81254L14.2439 7.83332ZM4.31741 10.6508C4.29838 10.6698 4.29166 10.6901 4.29166 10.7083V17.0417C4.29166 17.0599 4.29838 17.0802 4.31741 17.0992C4.33644 17.1183 4.35677 17.125 4.375 17.125C4.39323 17.125 4.41355 17.1183 4.43258 17.0992C4.45161 17.0802 4.45833 17.0599 4.45833 17.0417V10.7083C4.45833 10.6901 4.45161 10.6698 4.43258 10.6507C4.41355 10.6317 4.39323 10.625 4.375 10.625C4.35677 10.625 4.33644 10.6317 4.31741 10.6508ZM2.29166 10.7083C2.29166 9.56125 3.22808 8.62499 4.375 8.62499C5.52193 8.62499 6.45833 9.56126 6.45833 10.7083V17.0417C6.45833 18.1887 5.52193 19.125 4.375 19.125C3.22808 19.125 2.29166 18.1887 2.29166 17.0417V10.7083Z" fill="#E8E6E3"/>
</svg>
