<svg viewBox="0 0 24 24" fill="#e8e6e3"
  xmlns="http://www.w3.org/2000/svg">
  <path d="M19.4931 11.8182C19.7287 11.5772 19.894 11.2763 19.9709 10.9481C20.0478 10.62 20.0335 10.277 19.9294 9.95637C19.8335 9.63765 19.6494 9.35251 19.3985 9.13378C19.1476 8.91505 18.8401 8.77162 18.5112 8.72001L15.2821 8.24001C15.2256 8.23179 15.172 8.2095 15.1262 8.1752C15.0805 8.14089 15.0441 8.09566 15.0203 8.04364L13.5658 5.01092C13.4289 4.71368 13.2109 4.46112 12.9369 4.28229C12.6628 4.10345 12.3439 4.00561 12.0167 4.00001V4.00001C11.6834 3.99894 11.3569 4.09456 11.0767 4.27527C10.7966 4.45598 10.5749 4.71404 10.4385 5.01819L8.98397 8.05819C8.9608 8.1106 8.92455 8.15619 8.87871 8.19057C8.83286 8.22496 8.77895 8.24699 8.72215 8.25455L5.50033 8.75637C5.17186 8.80676 4.86459 8.94988 4.61466 9.16889C4.36472 9.38791 4.1825 9.67372 4.08942 9.99274C3.98546 10.3139 3.97186 10.6575 4.05011 10.9859C4.12836 11.3142 4.29544 11.6148 4.53306 11.8546L6.92579 14.2182C6.96663 14.2583 6.9972 14.3077 7.01493 14.3621C7.03265 14.4165 7.037 14.4744 7.0276 14.5309L6.48215 17.8764C6.4285 18.2104 6.468 18.5528 6.59631 18.8659C6.72462 19.179 6.93676 19.4506 7.20942 19.6509C7.50108 19.8763 7.85902 19.999 8.2276 20C8.51472 19.9984 8.797 19.9259 9.04942 19.7891L11.9585 18.2036C12.0083 18.1749 12.0647 18.1598 12.1221 18.1598C12.1796 18.1598 12.236 18.1749 12.2858 18.2036L15.1949 19.7746C15.4828 19.9308 15.8099 20.0001 16.1364 19.9743C16.463 19.9485 16.7751 19.8286 17.0349 19.6291C17.3075 19.4271 17.5195 19.1541 17.6477 18.8399C17.776 18.5257 17.8155 18.1824 17.7621 17.8473L17.2021 14.5091C17.1918 14.4521 17.195 14.3934 17.2114 14.3379C17.2278 14.2823 17.257 14.2313 17.2967 14.1891L19.4931 11.8182ZM16.1767 13.1491C15.9698 13.3574 15.8146 13.6113 15.7236 13.8904C15.6327 14.1696 15.6085 14.4662 15.6531 14.7564L16.2131 18.1018C16.2265 18.1664 16.2213 18.2335 16.1981 18.2953C16.1749 18.3571 16.1347 18.4111 16.0821 18.4509C16.028 18.486 15.9648 18.5046 15.9003 18.5046C15.8358 18.5046 15.7727 18.486 15.7185 18.4509L12.8094 16.88C12.5595 16.7438 12.2795 16.6724 11.9949 16.6724C11.7103 16.6724 11.4302 16.7438 11.1803 16.88L8.27124 18.4655C8.21708 18.5005 8.15394 18.5192 8.08942 18.5192C8.0249 18.5192 7.96176 18.5005 7.9076 18.4655C7.85302 18.4271 7.81085 18.3736 7.78629 18.3116C7.76174 18.2496 7.75587 18.1817 7.76942 18.1164L8.38033 14.7782C8.42767 14.4897 8.40696 14.1942 8.31983 13.9151C8.23271 13.6361 8.08158 13.3812 7.87851 13.1709L5.52942 10.8073C5.48753 10.7577 5.45997 10.6976 5.44972 10.6336C5.43947 10.5695 5.44691 10.5038 5.47124 10.4436C5.48996 10.3796 5.52662 10.3223 5.57689 10.2785C5.62715 10.2347 5.68892 10.2062 5.75488 10.1964L8.97669 9.70183C9.25476 9.65175 9.51651 9.53492 9.73947 9.36137C9.96242 9.18782 10.1399 8.96274 10.2567 8.70546L11.7112 5.65819C11.7368 5.59817 11.7793 5.54691 11.8335 5.51073C11.8878 5.47455 11.9515 5.45503 12.0167 5.45455C12.0823 5.45298 12.147 5.47076 12.2026 5.50568C12.2582 5.5406 12.3023 5.59111 12.3294 5.65092L13.784 8.69092C13.9066 8.95024 14.0906 9.17581 14.3199 9.34813C14.5493 9.52046 14.8171 9.63436 15.1003 9.68001L18.3294 10.16C18.3942 10.1679 18.4551 10.195 18.5043 10.2378C18.5535 10.2805 18.5889 10.337 18.6058 10.4C18.6287 10.4636 18.6327 10.5326 18.6172 10.5984C18.6017 10.6643 18.5674 10.7242 18.5185 10.7709L16.1767 13.1491Z" />
</svg>
