<svg viewBox="0 0 24 24" fill="none" stroke="#e8e6e3" stroke-width="2"
  xmlns="http://www.w3.org/2000/svg">
  <path d="M12.7402 3.98439L12.7402 3.9844L12.7432 3.98135C13.0048 3.71522 13.4313 3.71042 13.705 3.97798C13.868 4.14193 13.938 4.3739 13.8917 4.60792C13.8916 4.60843 13.8915 4.60894 13.8914 4.60944L13.14 8.23178L13.0152 8.83333H13.6296H18.1025C19.4443 8.83333 20.3526 10.2072 19.8276 11.4464C19.8274 11.4467 19.8273 11.4469 19.8272 11.4472L17.2487 17.4663C17.2485 17.4669 17.2482 17.4675 17.248 17.4681C17.0725 17.8666 16.6805 18.125 16.25 18.125H9.125C8.53031 18.125 8.04166 17.6364 8.04166 17.0417V9.13292C8.04166 8.84424 8.15643 8.56817 8.35438 8.37022L12.7402 3.98439ZM5.45833 17.0417C5.45833 17.6364 4.96969 18.125 4.375 18.125C3.78031 18.125 3.29166 17.6364 3.29166 17.0417V10.7083C3.29166 10.1136 3.78031 9.625 4.375 9.625C4.96969 9.625 5.45833 10.1136 5.45833 10.7083V17.0417Z" />
</svg>
