<svg width="24" height="24" viewBox="0 0 24 24" fill="none"
  xmlns="http://www.w3.org/2000/svg">
  <path fill-rule="evenodd" clip-rule="evenodd" d="M2 15.5833C2 15.2612 2.27982 15 2.625 15H21.375C21.7202 15 22 15.2612 22 15.5833C22 15.9055 21.7202 16.1667 21.375 16.1667H2.625C2.27982 16.1667 2 15.9055 2 15.5833Z" />
  <path fill-rule="evenodd" clip-rule="evenodd" d="M2 8.49999C2 8.17782 2.27982 7.91666 2.625 7.91666H21.375C21.7202 7.91666 22 8.17782 22 8.49999C22 8.82216 21.7202 9.08332 21.375 9.08332H2.625C2.27982 9.08332 2 8.82216 2 8.49999Z" />
  <path fill-rule="evenodd" clip-rule="evenodd" d="M2 19L2 5.00001L22 5.00001V19H2ZM3.25 17.8333H20.75V6.16667L3.25 6.16667L3.25 17.8333Z" />
  <path fill-rule="evenodd" clip-rule="evenodd" d="M7.585 5C7.90809 5 8.17 5.25584 8.17 5.57143V8.42857C8.17 8.74416 7.90809 9 7.585 9C7.26191 9 7 8.74416 7 8.42857V5.57143C7 5.25584 7.26191 5 7.585 5Z" />
  <path fill-rule="evenodd" clip-rule="evenodd" d="M7.585 15C7.90809 15 8.17 15.2558 8.17 15.5714V18.4286C8.17 18.7442 7.90809 19 7.585 19C7.26191 19 7 18.7442 7 18.4286V15.5714C7 15.2558 7.26191 15 7.585 15Z" />
  <path fill-rule="evenodd" clip-rule="evenodd" d="M12.225 5C12.5481 5 12.81 5.25584 12.81 5.57143V8.42857C12.81 8.74416 12.5481 9 12.225 9C11.9019 9 11.64 8.74416 11.64 8.42857V5.57143C11.64 5.25584 11.9019 5 12.225 5Z" />
  <path fill-rule="evenodd" clip-rule="evenodd" d="M12.225 15C12.5481 15 12.81 15.2558 12.81 15.5714V18.4286C12.81 18.7442 12.5481 19 12.225 19C11.9019 19 11.64 18.7442 11.64 18.4286V15.5714C11.64 15.2558 11.9019 15 12.225 15Z" />
  <path fill-rule="evenodd" clip-rule="evenodd" d="M16.865 5C17.1881 5 17.45 5.25584 17.45 5.57143V8.42857C17.45 8.74416 17.1881 9 16.865 9C16.5419 9 16.28 8.74416 16.28 8.42857V5.57143C16.28 5.25584 16.5419 5 16.865 5Z" />
  <path fill-rule="evenodd" clip-rule="evenodd" d="M16.865 15C17.1881 15 17.45 15.2558 17.45 15.5714V18.4286C17.45 18.7442 17.1881 19 16.865 19C16.5419 19 16.28 18.7442 16.28 18.4286V15.5714C16.28 15.2558 16.5419 15 16.865 15Z" />
</svg>
