<svg width="24" height="24" viewBox="0 0 24 24" fill="none"
  xmlns="http://www.w3.org/2000/svg">
  <path fill-rule="evenodd" clip-rule="evenodd" d="M6.75389 1.857C5.84934 2.87812 4.5876 4.01325 3.9496 4.37963C3.15614 4.83525 2.87263 5.22563 3.05161 5.61638C3.19549 5.93063 3.6144 7.28437 3.98239 8.625C4.35038 9.96563 4.49619 11.1188 4.30679 11.1874C4.11778 11.2564 3.96271 12.6596 3.96271 14.3059C3.96271 15.9521 3.79222 17.6093 3.58354 17.988C3.27534 18.5483 3.32934 18.6446 3.87322 18.5062C4.24121 18.4129 5.33014 18.8437 6.29332 19.464C7.2565 20.0842 8.44842 21.2903 8.94216 22.1441L9.83938 23.6966L10.5422 22.6549C10.9291 22.0819 11.6462 21.3967 12.1364 21.1324C12.6263 20.868 13.4614 20.6404 13.9918 20.6265C14.9234 20.6021 14.9307 20.5823 14.2074 20.0505C13.6531 19.6429 13.603 19.4884 14.0146 19.4558C14.3201 19.431 14.8308 19.4449 15.149 19.4857C15.4673 19.5266 16.6885 20.5594 17.8627 21.78C19.0368 23.001 20.2963 24 20.6616 24C21.2101 24 21.1241 23.7296 20.1659 22.4437C19.1522 21.0832 19.0075 20.5762 19.0156 18.4125C19.0206 17.0512 19.1826 15.3469 19.3751 14.625C19.568 13.9031 19.8523 12.9045 20.0066 12.4054C20.238 11.658 20.1748 11.5406 19.6471 11.7375C19.1117 11.937 19.0079 11.7165 19.0149 10.3946C19.0195 9.52425 19.3643 8.08238 19.7805 7.18988L20.5381 5.56725L19.3292 4.57837C18.6642 4.03462 17.6069 2.9085 16.9797 2.076L15.8399 0.5625L16.1033 3.9375C16.2727 6.10313 16.2152 7.69725 15.9436 8.3865C15.5749 9.32212 15.6019 9.43012 16.1527 9.22462C16.6611 9.03487 16.7355 9.15525 16.5319 9.83813C16.3926 10.3054 16.1751 12.2063 16.0482 14.0625L15.8179 17.4375L14.5689 17.5271C13.4036 17.6111 13.3041 17.5234 13.0815 16.2146C12.9503 15.4436 12.8412 13.9496 12.8389 12.8948C12.8365 11.8403 12.9962 10.1528 13.1937 9.14475C13.3912 8.13713 13.684 6.975 13.8445 6.5625C14.0952 5.9175 14.052 5.87925 13.534 6.288C12.9962 6.7125 12.9677 6.57188 13.2701 4.9755C13.4564 3.99225 13.7816 2.69813 13.993 2.10038C14.2047 1.50225 14.3776 0.92625 14.3776 0.820125C14.3776 0.713625 13.7754 1.3785 13.0391 2.29725C12.3031 3.21562 11.2095 4.32038 10.6093 4.75163L9.51845 5.53575L9.97092 9.04913C10.2197 10.9815 10.2741 12.6551 10.0917 12.7688C9.9092 12.882 9.95047 14.0246 10.1827 15.3075C10.4153 16.5907 10.4893 18.3923 10.3478 19.3114C10.2058 20.2305 9.92617 21.0806 9.72636 21.201C9.52655 21.321 9.363 21.1545 9.363 20.8313C9.363 20.5076 8.84226 19.7134 8.2058 19.0661C7.22256 18.066 7.04859 17.5946 7.04859 15.933C7.04859 14.8575 7.22526 13.0684 7.44088 11.9573C7.65651 10.8465 7.93694 9.6165 8.06385 9.22462C8.24668 8.66025 8.15372 8.56425 7.61755 8.76412C6.99575 8.99625 6.9618 8.7885 7.2025 6.20662C7.34676 4.66125 7.70126 2.6325 7.99017 1.69837C8.27947 0.76425 8.4897 0 8.4573 0C8.42489 0.000375 7.65844 0.835875 6.75389 1.857Z"/>
</svg>
