<svg viewBox="0 0 26 26" fill="#e8e6e3"
  xmlns="http://www.w3.org/2000/svg">
  <path d="M17.9366 5.04858C16.5709 3.68272 14.9228 3 12.9926 3C11.0622 3 9.41429 3.68286 8.04858 5.04858C6.68291 6.41425 6 8.06224 6 9.99257C6 10.9851 6.15021 11.7999 6.45057 12.4373L11.4356 23.0084C11.5722 23.3086 11.7839 23.5453 12.0707 23.7182C12.3575 23.8912 12.6648 23.9778 12.9927 23.9778C13.3204 23.9778 13.6278 23.8912 13.9146 23.7182C14.2014 23.5453 14.4175 23.3086 14.5632 23.0084L19.5342 12.4373C19.8347 11.7999 19.985 10.9851 19.985 9.99257C19.9853 8.06224 19.3025 6.41444 17.9366 5.04858ZM15.4644 12.4646C14.7817 13.1473 13.9578 13.4888 12.9926 13.4888C12.0274 13.4888 11.2035 13.1473 10.5205 12.4646C9.83764 11.7816 9.49614 10.9577 9.49614 9.99252C9.49614 9.02743 9.83764 8.20336 10.5205 7.5206C11.2035 6.83774 12.0275 6.49624 12.9926 6.49624C13.9578 6.49624 14.7817 6.83774 15.4644 7.5206C16.1473 8.20331 16.4888 9.02743 16.4888 9.99252C16.4888 10.9576 16.1473 11.7815 15.4644 12.4646Z" />
</svg>
