<svg viewBox="0 0 439 439" fill="#e8e6e3" xmlns="http://www.w3.org/2000/svg">
	<g clip-path="url(#clip0)">
		<path d="M322.621 42.825C294.073 14.272 259.619 0 219.268 0C178.915 0 144.465 14.275 115.915 42.825C87.366 71.374 73.09 105.825 73.09 146.178C73.09 166.927 76.23 183.96 82.509 197.284L186.719 418.27C189.575 424.546 194.002 429.495 199.997 433.108C205.993 436.725 212.416 438.536 219.27 438.536C226.122 438.536 232.548 436.725 238.543 433.108C244.539 429.495 249.056 424.546 252.102 418.27L356.02 197.284C362.302 183.96 365.444 166.926 365.444 146.178C365.449 105.825 351.176 71.378 322.621 42.825ZM270.942 197.855C256.669 212.127 239.445 219.266 219.268 219.266C199.091 219.266 181.867 212.127 167.59 197.855C153.315 183.578 146.176 166.354 146.176 146.177C146.176 126.002 153.315 108.775 167.59 94.502C181.867 80.227 199.094 73.088 219.268 73.088C239.445 73.088 256.669 80.227 270.942 94.502C285.216 108.774 292.355 126.002 292.355 146.177C292.355 166.352 285.217 183.575 270.942 197.855Z" />
	</g>
	<defs>
		<clipPath id="clip0">
			<rect width="438.536" height="438.536" />
		</clipPath>
	</defs>
</svg>
