<svg viewBox="0 0 21 21" fill="#e8e6e3"
  xmlns="http://www.w3.org/2000/svg">
  <path d="M12.4286 16C12.4286 15.0532 11.6611 14.2857 10.7143 14.2857C9.76751 14.2857 9 15.0532 9 16C9 16.9468 9.76751 17.7143 10.7143 17.7143C11.6611 17.7143 12.4286 16.9468 12.4286 16Z" />
  <path d="M12.4286 10.8571C12.4286 9.91037 11.6611 9.14286 10.7143 9.14286C9.76751 9.14286 9 9.91037 9 10.8571C9 11.8039 9.76751 12.5714 10.7143 12.5714C11.6611 12.5714 12.4286 11.8039 12.4286 10.8571Z" />
  <path d="M12.4286 5.71428C12.4286 4.76751 11.6611 4 10.7143 4C9.76751 4 9 4.76751 9 5.71428C9 6.66106 9.76751 7.42857 10.7143 7.42857C11.6611 7.42857 12.4286 6.66106 12.4286 5.71428Z" />
</svg>
