<svg width="24" height="24" viewBox="0 0 24 24" fill="black"
  xmlns="http://www.w3.org/2000/svg">
  <path d="M22.0711 13.922H13.922V22.0711C13.922 23.1313 13.0594 23.9849 12.0082 23.9849C10.957 23.9849 10.0945 23.1223 10.0945 22.0711V13.922H1.94534C0.885148 13.922 0.031601 13.0594 0.031601 12.0082C0.031601 10.957 0.894135 10.0945 1.94534 10.0945H10.0945V1.94536C10.0945 0.885163 10.957 0.0316162 12.0082 0.0316162C13.0594 0.0316162 13.922 0.89415 13.922 1.94536V10.0945H22.0711C23.1313 10.0945 23.9848 10.957 23.9848 12.0082C23.9848 13.0594 23.1313 13.922 22.0711 13.922Z"/>
</svg>
