<svg width="24" height="24" viewBox="0 0 24 24" fill="black"
  xmlns="http://www.w3.org/2000/svg">
  <path fill-rule="evenodd" clip-rule="evenodd" d="M0.220184 7.04585C0.220184 4.00575 2.68467 1.54126 5.72477 1.54126H18.055C21.0951 1.54126 23.5596 4.00575 23.5596 7.04585V16.8396C23.5596 19.8797 21.0951 22.3442 18.055 22.3442H5.72477C2.68467 22.3442 0.220184 19.8797 0.220184 16.8396V7.04585ZM5.72477 3.74309C3.90071 3.74309 2.42202 5.22179 2.42202 7.04585V16.8396C2.42202 18.6637 3.90071 20.1424 5.72477 20.1424H18.055C19.8791 20.1424 21.3578 18.6637 21.3578 16.8396V7.04585C21.3578 5.22179 19.8791 3.74309 18.055 3.74309H5.72477Z"/>
  <path fill-rule="evenodd" clip-rule="evenodd" d="M10.4543 9.41976L14.6441 11.9426L10.4543 14.4654V9.41976ZM15.6461 11.3393C15.6462 11.3392 15.6462 11.3392 15.6463 11.3391ZM8.97486 6.80805C9.54971 6.48125 10.1357 6.65775 10.4854 6.86832L16.7821 10.6597C17.1492 10.8808 17.549 11.3125 17.5485 11.9437C17.5479 12.5741 17.1483 13.0049 16.7821 13.2254C16.7821 13.2254 16.7821 13.2254 16.7821 13.2254L10.4855 17.0168C10.1341 17.2283 9.547 17.4039 8.97234 17.0755C8.40114 16.749 8.25248 16.1584 8.25248 15.7522V8.13291C8.25248 7.72611 8.40145 7.13403 8.97486 6.80805Z"/>
</svg>
