<svg viewBox="0 0 20 20" fill="#e8e6e3" xmlns="http://www.w3.org/2000/svg">
	<path d="M1.61568 6.58144L1.61664 6.5824L7.1312 6.58144V4.45024H4.2032C5.56256 3.02528 7.4752 2.13344 9.6 2.13344C13.7229 2.13344 17.0666 5.47616 17.0666 9.6H19.2C19.2 4.29792 14.9021 0 9.6 0C6.88032 0 4.42912 1.13632 2.68352 2.95424L2.68224 0.000319824H0.550079V5.51488C0.550079 6.10464 1.0272 6.58144 1.61568 6.58144Z" />
	<path d="M17.5834 12.6192V12.6182L12.0688 12.6192V14.7504H14.9958C13.6374 16.1754 11.7251 17.0669 9.6 17.0669C5.47712 17.0669 2.13344 13.7245 2.13344 9.60032H0C0 14.9024 4.29792 19.2003 9.6 19.2003C12.3187 19.2003 14.7709 18.0637 16.5165 16.2464V19.2003H18.6499V13.6858C18.6499 13.0963 18.1728 12.6192 17.5834 12.6192Z" />
</svg>
