<svg viewBox="0 0 725 725" fill="#e8e6e3" xmlns="http://www.w3.org/2000/svg">
	<path d="M543.058 238.869L419.889 362.039L543.058 485.208C559.082 501.232 558.946 527.17 543.058 543.058C527.17 558.946 501.096 558.946 485.208 543.058L362.039 419.889L238.869 543.058C222.845 559.082 196.908 558.946 181.019 543.058C165.131 527.17 165.131 501.096 181.019 485.208L304.189 362.039L181.019 238.869C164.995 222.845 165.131 196.908 181.019 181.019C196.908 165.131 222.981 165.131 238.869 181.019L362.039 304.189L485.208 181.019C501.232 164.995 527.17 165.131 543.058 181.019C558.946 196.908 559.082 222.845 543.058 238.869Z" />
</svg>
