<svg width="32" height="32" viewBox="0 0 32 32" fill="#e8e6e3" stroke="#e8e6e3" stroke-width="0.5" xmlns="http://www.w3.org/2000/svg">
  <path d="M17.2708 12.9006C17.0338 12.9006 16.8758 12.8216 16.7178 12.6636L13.5575 9.50337C13.2415 9.18734 13.2415 8.7133 13.5575 8.39728L16.7178 5.23702C17.0338 4.92099 17.5079 4.92099 17.8239 5.23702C18.1399 5.55304 18.1399 6.02708 17.8239 6.34311L15.2167 8.95032L17.8239 11.5575C18.1399 11.8736 18.1399 12.3476 17.8239 12.6636C17.6659 12.8216 17.5079 12.9006 17.2708 12.9006Z" />
  <path d="M16.4808 27.1218C11.2663 27.1218 7 22.8554 7 17.641C7 15.2708 7.86907 12.9796 9.5282 11.2415C9.84423 10.9255 10.3183 10.9255 10.6343 11.1625C10.9503 11.4785 10.9503 11.9526 10.7133 12.2686C9.29119 13.7697 8.58013 15.6659 8.58013 17.641C8.58013 21.9864 12.1354 25.5417 16.4808 25.5417C20.8261 25.5417 24.3814 21.9864 24.3814 17.641C24.3814 13.2957 20.8261 9.74038 16.4808 9.74038H15.6907C15.2167 9.74038 14.9006 9.42436 14.9006 8.95032C14.9006 8.47628 15.2167 8.16026 15.6907 8.16026H16.4808C21.6952 8.16026 25.9615 12.4266 25.9615 17.641C25.9615 22.8554 21.6952 27.1218 16.4808 27.1218Z" />
</svg>