<svg viewBox="0 0 32 32" fill="#e8e6e3" xmlns="http://www.w3.org/2000/svg">
	<path d="M17 12C16.7 12 16.5 11.9 16.3 11.7L12.3 7.7C11.9 7.3 11.9 6.7 12.3 6.3L16.3 2.3C16.7 1.9 17.3 1.9 17.7 2.3C18.1 2.7 18.1 3.3 17.7 3.7L14.4 7L17.7 10.3C18.1 10.7 18.1 11.3 17.7 11.7C17.5 11.9 17.3 12 17 12Z" />
	<path d="M16 30C9.4 30 4 24.6 4 18C4 15 5.1 12.1 7.2 9.9C7.6 9.5 8.2 9.5 8.6 9.8C9 10.2 9 10.8 8.7 11.2C6.9 13.1 6 15.5 6 18C6 23.5 10.5 28 16 28C21.5 28 26 23.5 26 18C26 12.5 21.5 8 16 8H15C14.4 8 14 7.6 14 7C14 6.4 14.4 6 15 6H16C22.6 6 28 11.4 28 18C28 24.6 22.6 30 16 30Z" />
</svg>
