<svg viewBox="0 0 32 32" fill="#e8e6e3" xmlns="http://www.w3.org/2000/svg">
	<path d="M19.4271 21.4271C18.0372 22.4175 16.3367 23 14.5 23C9.80558 23 6 19.1944 6 14.5C6 9.80558 9.80558 6 14.5 6C19.1944 6 23 9.80558 23 14.5C23 16.3367 22.4175 18.0372 21.4271 19.4271L27.0119 25.0119C27.5621 25.5621 27.5575 26.4425 27.0117 26.9883L26.9883 27.0117C26.4439 27.5561 25.5576 27.5576 25.0119 27.0119L19.4271 21.4271ZM14.5 21C18.0899 21 21 18.0899 21 14.5C21 10.9101 18.0899 8 14.5 8C10.9101 8 8 10.9101 8 14.5C8 18.0899 10.9101 21 14.5 21Z" />
</svg>
