<svg width="24" height="24" viewBox="0 0 24 24" fill="none" xmlns="http://www.w3.org/2000/svg">
<path fill-rule="evenodd" clip-rule="evenodd" d="M3.27 24C1.46403 24 0 22.536 0 20.73C0 18.924 1.46403 17.46 3.27 17.46C5.07597 17.46 6.54 18.924 6.54 20.73C6.54 22.536 5.07597 24 3.27 24ZM0 0.659973C12.885 0.659973 23.34 11.115 23.34 24H19.095C19.095 13.455 10.545 4.90497 0 4.90497V0.659973ZM0 9.14997C8.205 9.14997 14.85 15.795 14.85 24H10.605C10.605 18.15 5.85 13.395 0 13.395V9.14997Z" fill="#E8E6E3"/>
</svg>
