<svg viewBox="0 0 24 19" fill="#e8e6e3" xmlns="http://www.w3.org/2000/svg">
	<path d="M9.18158 2.24679C9.64078 1.81726 10.0168 1.963 10.0168 2.57059V16.4293C10.0168 17.037 9.64078 17.1828 9.18158 16.7531L4.86313 12.7138H2V6.28659H4.86313L9.18158 2.24679ZM11.8245 13.3335C11.6047 13.3335 11.3846 13.2553 11.2166 13.0982C10.881 12.7842 10.881 12.2754 11.2166 11.962C12.6676 10.6047 12.6676 8.39644 11.2166 7.03919C10.881 6.7253 10.881 6.21647 11.2166 5.90295C11.5521 5.58942 12.0961 5.58942 12.4313 5.90295C14.5519 7.88724 14.5519 11.115 12.4313 13.0989C12.2637 13.2546 12.0443 13.3335 11.8245 13.3335" />
</svg>
