<svg viewBox="0 0 24 19" fill="#e8e6e3" xmlns="http://www.w3.org/2000/svg">
	<path d="M9.18158 2.24679C9.64038 1.81726 10.0164 1.963 10.0164 2.57059V16.4293C10.0164 17.037 9.64038 17.1828 9.18158 16.7531L4.86313 12.7138H2V6.28659H4.86313L9.18158 2.24679ZM11.8241 13.3335C11.6044 13.3335 11.3842 13.2553 11.2166 13.0982C10.881 12.7842 10.881 12.2754 11.2166 11.962C12.6676 10.6047 12.6676 8.39643 11.2166 7.03919C10.881 6.7253 10.881 6.21647 11.2166 5.90295C11.5521 5.58942 12.0961 5.58942 12.4309 5.90295C14.5519 7.88724 14.5519 11.115 12.4309 13.0989C12.2637 13.2546 12.0439 13.3335 11.8241 13.3335ZM14.8745 14.8483C14.6555 14.8483 14.4349 14.77 14.2673 14.613C13.9317 14.299 13.9317 13.7902 14.2673 13.4766C16.6112 11.2842 16.6112 7.71653 14.2673 5.52408C13.9317 5.21019 13.9317 4.70136 14.2673 4.38784C14.6029 4.07395 15.1469 4.07395 15.4816 4.38784C16.9425 5.75279 17.7466 7.56894 17.7466 9.5C17.7466 11.4315 16.9425 13.2471 15.4824 14.613C15.3148 14.77 15.0947 14.8483 14.8745 14.8483ZM17.9264 16.3634C17.7062 16.3634 17.4864 16.2851 17.3184 16.1283C16.9833 15.8141 16.9833 15.3056 17.3184 14.9921C18.8872 13.5243 19.7506 11.5742 19.7506 9.5C19.7506 7.42577 18.8872 5.47562 17.3184 4.0086C16.9833 3.69508 16.9833 3.18588 17.3184 2.87236C17.654 2.55884 18.1984 2.55884 18.5332 2.87236C20.4261 4.64262 21.4685 6.99697 21.4685 9.5C21.4685 12.0034 20.4261 14.3577 18.5332 16.1276C18.3656 16.2848 18.1462 16.3634 17.9264 16.3634Z" />
</svg>
