<svg viewBox="0 0 24 19" fill="#e8e6e3" xmlns="http://www.w3.org/2000/svg">
	<path d="M9.18158 2.24679C9.64038 1.81726 10.0164 1.963 10.0164 2.57059V16.4293C10.0164 17.037 9.64038 17.1828 9.18158 16.7531L4.86274 12.7138H2V6.28659H4.86274L9.18158 2.24679ZM11.8241 13.3335C11.6044 13.3335 11.3842 13.2553 11.2162 13.0982C10.8806 12.7842 10.8806 12.2754 11.2162 11.962C12.6672 10.6047 12.6672 8.39643 11.2162 7.03919C10.8806 6.7253 10.8806 6.21647 11.2162 5.90295C11.5518 5.58942 12.0957 5.58942 12.4309 5.90295C14.5519 7.88724 14.5519 11.115 12.4309 13.0989C12.2637 13.2546 12.0439 13.3335 11.8241 13.3335ZM14.8749 14.8483C14.6547 14.8483 14.4349 14.77 14.2669 14.613C13.9317 14.299 13.9317 13.7902 14.2669 13.4766C16.6112 11.2842 16.6112 7.71653 14.2669 5.52408C13.9317 5.21019 13.9317 4.70136 14.2669 4.38784C14.6025 4.07395 15.1465 4.07395 15.4816 4.38784C16.9421 5.75279 17.7462 7.56894 17.7462 9.5C17.7462 11.4315 16.9421 13.2471 15.482 14.613C15.3145 14.77 15.0947 14.8483 14.8749 14.8483Z" />
</svg>
