<svg width="512" height="512" viewBox="0 0 512 512" fill="none" xmlns="http://www.w3.org/2000/svg">
<circle cx="256" cy="256" r="256" fill="black"/>
<path d="M125.734 357.29C128.914 354.117 132.34 352.165 136.254 351.432C139.924 350.7 142.37 350.456 143.349 350.456C149.465 350.456 157.294 353.141 166.346 358.266C199.374 379.013 218.212 403.176 222.616 431C222.616 431 224.328 427.339 227.998 420.261C231.668 413.183 236.561 404.884 242.677 395.854C259.069 384.87 271.791 382.185 280.598 382.185H281.821C291.607 382.918 296.99 385.358 296.99 385.358C296.99 385.847 287.204 369.25 271.791 367.297C276.684 364.612 281.821 363.148 287.204 363.148C288.916 363.148 290.873 363.148 292.586 363.392C309.222 367.053 320.476 379.989 331.975 394.877C338.825 404.152 346.409 412.45 354.972 419.773C363.535 427.339 374.544 431 388 431C388 431 384.82 427.827 378.459 421.237C371.853 414.647 365.247 405.861 358.642 394.389C352.036 383.162 347.633 369.982 345.675 354.849C345.431 355.338 350.568 369.738 354.972 374.131C354.972 374.131 354.727 369.494 353.993 360.463C353.26 351.432 352.77 344.354 352.77 339.229C352.77 329.466 353.504 318.483 354.727 306.523C356.929 288.218 362.067 270.644 370.63 253.803C370.874 253.803 369.407 252.339 366.715 252.339C363.78 252.339 359.865 253.559 353.26 258.929C353.26 258.929 353.015 256.488 352.77 251.851C352.281 247.213 352.036 243.064 352.036 239.647C352.036 235.01 352.281 229.884 352.77 224.271C353.993 204.745 360.11 182.534 375.033 166.669C375.033 166.669 372.098 164.229 366.226 159.591C360.354 154.954 353.26 148.608 345.186 140.554C328.55 124.445 312.158 103.699 304.574 81C304.574 81 305.063 85.8815 306.287 95.6444C307.51 105.651 308.733 117.367 309.956 130.791C312.647 158.127 312.647 172.527 312.647 177.165C312.647 186.195 312.158 193.273 310.935 198.155C305.063 221.342 300.66 226.955 300.66 227.199C300.66 227.444 311.913 217.437 320.232 210.847C320.232 210.847 319.253 215.484 317.296 224.515C315.339 233.789 313.381 245.261 311.424 259.173C307.265 286.753 307.51 303.838 307.51 307.011C307.51 319.459 308.733 330.686 310.935 340.937C310.935 340.937 307.999 337.52 302.372 333.615C296.5 329.954 289.161 327.025 281.087 327.025H279.62C285.736 328.734 292.341 331.907 294.299 336.544L271.057 335.324C271.301 335.324 269.833 331.662 269.833 328.49C269.833 328.49 269.344 324.34 268.61 315.798C267.632 307.499 266.898 298.469 266.653 288.95C266.164 279.431 265.919 271.621 265.919 265.519C265.919 257.709 266.164 249.654 266.653 241.356C268.61 218.657 272.28 200.596 277.907 186.683C283.289 173.015 285.98 166.181 285.98 166.181C286.225 166.181 271.301 178.873 266.653 186.683C266.653 186.683 267.387 182.534 268.61 174.48C269.833 166.425 271.546 156.662 273.748 144.947C275.95 133.476 278.886 122.004 282.555 110.533C285.98 99.0614 289.895 89.7866 294.054 82.4644C294.054 82.4644 291.607 86.1255 286.714 93.2036C281.821 100.282 275.46 108.824 267.876 118.343C260.047 128.106 251.729 137.381 242.922 145.923C234.114 154.466 225.796 160.568 217.723 164.229C217.723 164.229 218.701 170.575 220.903 183.022C222.86 195.47 224.818 209.87 227.02 226.223C228.977 242.576 230.2 257.464 230.934 270.888L220.659 264.298C220.659 264.298 221.882 269.18 224.084 279.187C226.286 289.194 227.998 299.689 229.466 310.672C230.934 321.9 231.668 331.662 231.668 339.717C231.668 343.866 231.668 347.771 231.423 351.676C229.711 368.029 227.753 379.745 225.552 386.335C223.35 392.925 222.127 396.342 222.127 396.342C219.435 386.579 206.469 359.487 199.129 353.141C199.374 353.385 199.619 354.117 199.619 355.093C199.619 356.314 199.374 357.534 199.129 358.755C197.172 356.802 195.215 354.849 193.013 353.141C193.013 353.141 190.567 350.944 188.365 345.575C187.141 342.89 186.163 339.229 185.429 334.347C183.472 324.828 183.716 315.31 183.716 313.357C183.716 306.523 184.206 298.469 185.429 289.194C188.854 262.59 192.524 242.088 196.193 227.444C199.863 213.043 201.576 205.721 201.576 205.721C201.82 205.477 187.141 210.603 184.695 217.925C184.695 217.925 184.94 210.358 185.184 195.226C185.429 180.338 187.141 162.52 190.322 141.774C193.502 121.272 199.129 101.746 207.203 83.4407C198.395 92.2273 190.811 100.526 184.206 108.092C176.621 117.123 168.303 125.909 159.496 133.964C150.688 142.262 139.19 150.561 125 158.615C125 158.615 126.223 162.032 128.914 168.622C131.606 175.212 134.541 183.51 137.722 193.273C144.327 212.799 149.465 234.033 149.465 248.678V250.386C149.465 250.386 147.753 248.922 145.795 247.213C143.593 245.505 141.147 244.773 139.434 244.773H138.7C138.7 244.773 139.19 248.434 140.168 255.512C141.881 269.912 143.349 290.414 143.349 307.011C143.349 308.232 143.104 311.16 143.104 316.286C143.104 321.411 142.126 326.781 140.413 331.907C135.275 343.866 130.382 352.165 125.734 357.29Z" fill="white"/>
</svg>
